<svg  width="49" height="49" viewBox="0 0 49 49" fill="none" xmlns="http://www.w3.org/2000/svg">
    <g clip-path="url(#clip0_190_1561)">
        <mask id="mask0_190_1561" style="mask-type:luminance" maskUnits="userSpaceOnUse" x="0" y="0" width="49" height="49">
            <path d="M48.75 24.5C48.75 11.2452 38.0048 0.5 24.75 0.5C11.4952 0.5 0.75 11.2452 0.75 24.5C0.75 37.7548 11.4952 48.5 24.75 48.5C38.0048 48.5 48.75 37.7548 48.75 24.5Z" fill="white"/>
        </mask>
        <g mask="url(#mask0_190_1561)">
            <path d="M48.75 0.5H0.75V48.5H48.75V0.5Z" fill="#EDD75A"/>
            <path d="M12.7834 37.0477L43.2172 46.9363C47.4193 48.3016 51.9325 46.002 53.2978 41.8L63.1864 11.3662C64.5517 7.16412 62.2521 2.65088 58.05 1.28556L27.6162 -8.60298C23.4142 -9.96831 18.901 -7.6687 17.5357 -3.46666L7.64711 26.9671C6.28178 31.1692 8.58139 35.6824 12.7834 37.0477Z" fill="#0C8F8F"/>
            <path d="M26.3081 25.0982C29.1458 25.9566 31.7827 25.5673 34.2188 23.9303" stroke="white" stroke-width="2.22222" stroke-linecap="round"/>
            <path d="M22.2383 20.2025C22.1212 19.4864 21.5947 18.9788 21.0624 19.0687C20.5301 19.1587 20.1936 19.8121 20.3107 20.5283C20.4277 21.2444 20.9542 21.752 21.4865 21.662C22.0188 21.572 22.3554 20.9186 22.2383 20.2025Z" fill="white"/>
            <path d="M38.0825 17.9757C37.9654 17.2596 37.439 16.752 36.9067 16.842C36.3744 16.9319 36.0378 17.5854 36.1549 18.3015C36.272 19.0176 36.7984 19.5252 37.3307 19.4352C37.863 19.3452 38.1996 18.6918 38.0825 17.9757Z" fill="white"/>
        </g>
    </g>
    <defs>
        <clipPath id="clip0_190_1561">
        <rect width="48" height="48" fill="white" transform="translate(0.75 0.5)"/>
        </clipPath> 
    </defs>
</svg>