<svg width="160" height="161" viewBox="0 0 160 161" fill="none" xmlns="http://www.w3.org/2000/svg">
<g id="Mask group">
<mask id="mask0_2351_16124" style="mask-type:luminance" maskUnits="userSpaceOnUse" x="0" y="0" width="160" height="161">
<g id="Group">
<path id="Vector" d="M160 80.5C160 36.3172 124.183 0.5 80 0.5C35.8172 0.5 0 36.3172 0 80.5C0 124.683 35.8172 160.5 80 160.5C124.183 160.5 160 124.683 160 80.5Z" fill="white"/>
</g>
</mask>
<g mask="url(#mask0_2351_16124)">
<g id="Group_2">
<path id="Vector_2" d="M160 0.5H0V160.5H160V0.5Z" fill="#0C8F8F"/>
<path id="Vector_3" d="M108.387 210.991C156.439 188.584 177.228 131.466 154.821 83.4137C132.414 35.3619 75.2963 14.5726 27.2444 36.9795C-20.8074 59.3864 -41.5967 116.505 -19.1898 164.556C3.21718 212.608 60.3353 233.398 108.387 210.991Z" fill="#FFAD08"/>
<g id="Group_3">
<path id="Vector_4" d="M52.5068 109.624C52.055 113.865 53.9408 118.168 57.7494 121.588C61.5579 125.007 66.9773 127.263 72.8153 127.858C78.6533 128.452 84.4316 127.338 88.8792 124.76C93.3268 122.181 96.0792 118.35 96.5311 114.109" fill="black"/>
<path id="Vector_5" d="M65.5776 84.0868C65.8305 81.6747 64.5803 79.5623 62.7853 79.3687C60.9903 79.1752 59.3302 80.9736 59.0773 83.3858C58.8244 85.7979 60.0746 87.9102 61.8696 88.1038C63.6646 88.2974 65.3247 86.4989 65.5776 84.0868Z" fill="black"/>
<path id="Vector_6" d="M92.143 86.4109C92.3959 83.9988 91.1458 81.8865 89.3507 81.6929C87.5557 81.4993 85.8956 83.2978 85.6427 85.7099C85.3899 88.122 86.64 90.2344 88.435 90.428C90.23 90.6215 91.8902 88.8231 92.143 86.4109Z" fill="black"/>
</g>
</g>
</g>
</g>
</svg>
